<svg width="175" height="104" viewBox="0 0 175 104" fill="none" xmlns="http://www.w3.org/2000/svg">
<g id="cap">
<path d="M12.418 96.9463C6.45524 94.1741 16.1182 98.6089 3.22045 91.6965C2.20909 66.1242 16.2967 5.13595 80.7911 3.05549C161.409 0.454907 172.243 71.9434 171.81 91.6964C171.81 91.6964 166.546 97.8462 161.304 99.6609C156.061 101.476 155.058 101.241 146.474 97.2298C137.889 93.2182 123.227 86.4087 89.2086 86.4087C51.9235 86.4087 42.4236 93.8365 29.6946 98.3617C24.2419 100.3 21.2888 101.071 12.418 96.9463Z" fill="#1776CF"/>
<path d="M3.22045 91.6965C16.1182 98.6089 6.45524 94.1741 12.418 96.9463C21.2888 101.071 24.2419 100.3 29.6946 98.3617C42.4236 93.8365 51.9235 86.4087 89.2086 86.4087C123.227 86.4087 137.889 93.2182 146.474 97.2298C155.058 101.241 156.061 101.476 161.304 99.6609C166.546 97.8462 171.81 91.6964 171.81 91.6964M3.22045 91.6965C2.20909 66.1242 16.2967 5.13595 80.7911 3.05549C161.409 0.454907 172.243 71.9434 171.81 91.6964M3.22045 91.6965C18.1051 83.9842 44.804 71.2535 89.2086 71.2535C137.207 71.2535 167.738 89.4475 171.81 91.6964" stroke="#033561" stroke-width="5.95141"/>
</g>
</svg>
