<svg width="88" height="131" viewBox="0 0 88 131" fill="none" xmlns="http://www.w3.org/2000/svg">
<g id="hair">
<path d="M37.0321 3.82129H50.3873C50.3873 3.82129 72.8554 60.1626 80.6075 88.8716C81.355 91.64 81.9936 94.3375 82.4953 96.9246C83.1501 100.301 83.5716 103.49 83.6978 106.402C83.7952 108.652 83.4328 110.67 83.4328 112.618C71.7302 112.618 43.1883 126.257 43.1883 126.257C43.1883 126.257 17.1202 112.618 4.45651 112.618C4.45678 110.793 3.84028 108.7 3.87125 106.402C3.90991 103.534 4.28187 100.341 4.91576 96.9246C5.39308 94.3523 6.01891 91.6535 6.76278 88.8716C14.3146 60.6293 37.0321 3.82129 37.0321 3.82129Z" fill="#E225A2"/>
<path d="M3.87125 106.402C3.84028 108.7 4.45678 110.793 4.45651 112.618C17.1202 112.618 43.1883 126.257 43.1883 126.257C43.1883 126.257 71.7302 112.618 83.4328 112.618C83.4328 110.67 83.7952 108.652 83.6978 106.402M3.87125 106.402L37.0321 79.855H50.3873L83.6978 106.402M3.87125 106.402C3.90991 103.534 4.28187 100.341 4.91576 96.9246M83.6978 106.402C83.5716 103.49 83.1501 100.301 82.4953 96.9246M4.91576 96.9246L37.0321 51.8269H50.3873L82.4953 96.9246M4.91576 96.9246C5.39308 94.3523 6.01891 91.6535 6.76278 88.8716M82.4953 96.9246C81.9936 94.3375 81.355 91.64 80.6075 88.8716M6.76278 88.8716C14.3146 60.6293 37.0321 3.82129 37.0321 3.82129H50.3873C50.3873 3.82129 72.8554 60.1626 80.6075 88.8716M6.76278 88.8716L37.0321 28.084H50.3873L80.6075 88.8716" stroke="#C9188D" stroke-width="7"/>
</g>
</svg>
