<svg width="220" height="191" viewBox="0 0 220 191" fill="none" xmlns="http://www.w3.org/2000/svg">
<g id="hair">
<path d="M31.9671 150.932V176.313C26.4587 168.748 15.0255 152.764 13.3599 149.347C11.6944 145.929 12.666 140.088 13.3599 137.594C11.5094 136.788 7.18387 132.755 4.6856 123.077C2.18734 113.399 7.1144 104.687 9.89021 101.541C9.05746 93.4571 14.6324 86.9523 17.5239 84.7104C17.5239 69.4083 28.8587 63.8173 34.526 62.9346L35.7908 52.9139L35.934 52.4694C37.6409 47.1683 40.5146 38.2435 42.4105 33.5545C44.1025 29.3701 48.3625 32.33 50.6631 33.5545C50.0848 32.1719 50.9035 28.8537 55.3449 26.6418C59.7863 24.4299 66.9109 25.7202 69.9181 26.6418C70.3808 24.2222 72 18.7608 74.7759 16.2721C77.5517 13.7834 88.1925 15.2352 93.1659 16.2721C93.5128 12.8156 99.4115 6.94005 105.333 6.94005C110.069 6.94005 113.306 13.1614 114.332 16.2721L123.524 16.9462C127.508 16.9462 130.574 14.3451 132.217 12.857C134.873 10.4516 137.34 6.94005 142.223 4.61528C154.714 0.467507 156.085 18.3463 155.969 26.6418C165.963 20.5584 173.087 35.6287 175.4 43.9243C184.006 43.6478 194.022 62.474 197.954 71.9217C213.226 79.5259 210.793 93.3095 215.303 111.647C219.814 129.984 200.907 143.857 201.887 153.618C202.671 161.427 191.893 179.126 186.406 187L188.365 153.618C187.19 153.553 184.407 153.462 182.682 153.618C180.527 153.813 178.175 139.953 173.276 139.953C168.377 139.953 169.356 121.407 168.964 111.647C168.572 101.886 152.699 103.252 147.408 103.838C142.117 104.424 129.893 96.0465 127.766 94.8906C125.638 93.7348 120.61 96.2392 117.129 96.0465C114.344 95.8924 108.104 94.1576 105.333 93.3095C104.061 94.4528 100.416 96.8767 96.009 97.4255C91.6018 97.9743 84.9911 94.9102 82.2366 93.3095C76.9572 95.8248 64.6079 100.993 57.4462 101.541C50.2846 102.09 47.576 106.343 47.1169 108.401C43.6738 139.956 37.4762 136.526 37.4762 140.642C37.4762 143.935 33.8035 148.874 31.9671 150.932Z" fill="#744C10"/>
<path d="M37.4762 140.642C37.4762 143.935 33.8035 148.874 31.9671 150.932V176.313C26.4587 168.748 15.0255 152.764 13.3599 149.347C11.6944 145.929 12.666 140.088 13.3599 137.594C11.5094 136.788 7.18387 132.755 4.6856 123.077C2.18734 113.399 7.1144 104.687 9.89021 101.541C9.05746 93.4571 14.6324 86.9523 17.5239 84.7104M37.4762 140.642C37.4762 136.526 43.6738 139.956 47.1169 108.401C47.576 106.343 50.2846 102.09 57.4462 101.541C64.6079 100.993 76.9572 95.8248 82.2366 93.3095M37.4762 140.642C32.8952 137.129 23.8049 127.035 24.0915 114.755M82.2366 93.3095C84.9911 94.9102 91.6018 97.9743 96.009 97.4255C100.416 96.8767 104.061 94.4528 105.333 93.3095M82.2366 93.3095C87.939 88.2308 99.3439 75.5576 99.3438 65.4937M105.333 93.3095C108.104 94.1576 114.344 95.8924 117.129 96.0465C120.61 96.2392 125.638 93.7348 127.766 94.8906M105.333 93.3095C111.326 89.6301 124.204 80.7005 127.766 74.4179M127.766 94.8906C129.893 96.0465 142.117 104.424 147.408 103.838M127.766 94.8906C135.616 91.993 152.249 84.1274 155.969 75.8458M147.408 103.838C152.699 103.252 168.572 101.886 168.964 111.647C169.356 121.407 168.377 139.953 173.276 139.953M147.408 103.838C153.814 101.643 167.503 95.5414 171.013 88.6966M173.276 139.953C178.175 139.953 180.527 153.813 182.682 153.618C184.407 153.462 187.19 153.553 188.365 153.618M173.276 139.953C179.613 137.594 181.114 124.408 182.682 114.755M188.365 153.618L186.406 187C191.893 179.126 202.671 161.427 201.887 153.618C200.907 143.857 219.814 129.984 215.303 111.647C210.793 93.3095 213.226 79.5259 197.954 71.9217M188.365 153.618C191.562 150.064 197.954 140.314 197.954 129.748M197.954 71.9217C194.022 62.474 184.006 43.6478 175.4 43.9243M197.954 71.9217C197.95 74.9499 196.4 81.7348 195.022 84.7104M175.4 43.9243C173.087 35.6287 165.963 20.5584 155.969 26.6418M175.4 43.9243C175.182 46.0446 174.452 50.811 173.276 52.9139M155.969 26.6418C156.085 18.3463 154.714 0.467507 142.223 4.61528C137.34 6.94005 134.873 10.4516 132.217 12.857C130.574 14.3451 127.508 16.9462 123.524 16.9462L114.332 16.2721M155.969 26.6418C156.27 28.9948 156.239 34.3684 153.711 37.0397M114.332 16.2721C113.306 13.1614 110.069 6.94005 105.333 6.94005C99.4115 6.94005 93.5128 12.8156 93.1659 16.2721M114.332 16.2721C115.264 18.2741 117.129 23.1509 117.129 26.6418M93.1659 16.2721C88.1925 15.2352 77.5517 13.7834 74.7759 16.2721C72 18.7608 70.3808 24.2222 69.9181 26.6418M93.1659 16.2721C91.1224 19.1719 87.4392 26.1783 89.0545 31.0056M69.9181 26.6418C66.9109 25.7202 59.7863 24.4299 55.3449 26.6418C50.9035 28.8537 50.0848 32.1719 50.6631 33.5545M69.9181 26.6418C68.6379 28.4795 66.4616 33.1319 67.9978 37.0397M50.6631 33.5545C48.3625 32.33 44.1025 29.3701 42.4105 33.5545C40.4605 38.3772 37.4762 47.6807 35.7908 52.9139L34.526 62.9346M50.6631 33.5545C50.1653 35.6523 51.7243 39.9745 52.9188 42.1305M34.526 62.9346C28.8587 63.8173 17.5239 69.4083 17.5239 84.7104M34.526 62.9346C31.8367 66.6585 30.1188 83.8693 34.526 88.6966M17.5239 84.7104C17.9055 86.6644 21.601 95.2359 24.0915 97.4255" stroke="#422B09" stroke-width="7" stroke-linecap="round" stroke-linejoin="round"/>
</g>
</svg>
