<svg width="193" height="137" viewBox="0 0 193 137" fill="none" xmlns="http://www.w3.org/2000/svg">
<g id="hair">
<path d="M148.805 61.0867C156.065 64.34 159.101 75.3167 161.1 94.2837C163.099 113.251 162.752 128.193 165.41 130.293C168.067 132.393 171.303 133.028 173.395 130.293C175.487 127.559 176.007 118.205 179.226 107.519C181.391 100.335 185.74 86.6441 187.108 81.7833C189.061 74.8391 189.77 69.5246 187.998 63.7229C187.184 61.0583 185.507 57.8805 183.246 54.5752C177.139 45.6465 166.777 35.7879 157.693 32.6046C140.891 -2.29717 75.6802 0.910099 53.4065 9.87379C31.1328 18.8375 28.6283 29.6887 24.757 32.6046C20.8498 35.5476 17.313 39.2858 14.4487 43.0444C11.2701 47.2156 8.91949 51.412 7.80959 54.5752C5.51295 61.1205 -0.308563 70.6888 7.80959 92.3323C8.94589 94.8356 10.2227 98.2866 11.5428 102.102C15.3749 113.178 19.5724 127.327 21.7606 130.293C24.6783 134.248 27.5058 133.457 31.2128 132.419L31.3058 132.393C35.0586 131.343 32.5308 115.044 34.4807 102.102C36.4307 89.1608 36.7312 83.2267 42.9991 75.3167C51.2226 67.57 61.7536 62.3588 73.4611 59.1027C98.7347 52.0736 123.947 55.7348 148.805 61.0867Z" fill="#2F2F1D"/>
<path d="M148.805 61.0867C156.065 64.34 159.101 75.3167 161.1 94.2837C163.099 113.251 162.752 128.193 165.41 130.293C168.067 132.393 171.303 133.028 173.395 130.293C175.487 127.559 176.007 118.205 179.226 107.519M148.805 61.0867C123.947 55.7348 98.7347 52.0736 73.4611 59.1027M148.805 61.0867C150.502 58.1575 152.61 52.3193 153.783 49.0473M148.805 61.0867C152.149 62.5852 157.693 58.0025 168.01 70.6888C174.136 78.2209 179.226 88.326 179.226 107.519M42.9991 75.3167C31.3058 79.3194 13.4492 79.845 3.66739 70.6888M42.9991 75.3167C36.7312 83.2267 36.4307 89.1608 34.4807 102.102M42.9991 75.3167C51.2226 67.57 61.7536 62.3588 73.4611 59.1027M7.80959 54.5752C5.51295 61.1205 -0.308556 70.6888 7.80959 92.3323C12.2443 102.102 18.8186 126.306 21.7606 130.293C24.7027 134.281 27.553 133.443 31.3058 132.393C35.0586 131.343 32.5308 115.044 34.4807 102.102M7.80959 54.5752C8.97133 67.6976 52.5454 64.7052 73.4611 59.1027M7.80959 54.5752C8.9195 51.412 11.2701 47.2156 14.4487 43.0444M157.693 32.6046C140.891 -2.29717 75.6802 0.910099 53.4065 9.87379C31.1328 18.8375 28.6283 29.6887 24.757 32.6046M157.693 32.6046C157.693 35.125 156.852 35.7127 156.265 38.0634M157.693 32.6046C166.777 35.7879 177.139 45.6465 183.246 54.5752C185.507 57.8805 187.184 61.0583 187.998 63.7229C189.77 69.5246 189.061 74.8391 187.108 81.7833M34.4807 102.102C27.7506 104.67 20.8127 109.516 11.5428 102.102M179.226 107.519C181.391 100.335 185.74 86.6441 187.108 81.7833M153.783 49.0473C148.998 41.2828 126.294 38.1484 100.372 39.4827C70.2018 41.0356 64.2718 52.5197 41.093 48.06C30.1425 45.9531 19.8263 41.6504 14.4487 43.0444M153.783 49.0473C154.878 45.9912 157.133 42.5677 156.265 38.0634M153.783 49.0473C160.092 46.5614 178.886 59.1027 187.108 81.7833M14.4487 43.0444C17.3131 39.2858 20.8498 35.5476 24.757 32.6046M156.265 38.0634C153.123 33.1736 147.402 26.8998 137.884 23.7269C123.216 18.8375 97.1391 13.6766 68.3462 23.7269C46.4391 31.3737 33.3209 36.3213 24.757 32.6046" stroke="#080707" stroke-width="7" stroke-linecap="round"/>
</g>
</svg>
