<svg width="195" height="216" viewBox="0 0 195 216" fill="none" xmlns="http://www.w3.org/2000/svg">
<g id="hair">
<path d="M33.4571 100.501C39.4829 114.849 33.0985 143.801 29.2758 151.021C28.4847 152.515 27.4869 153.246 26.3959 153.447C26.2801 156.909 26.1181 166.404 26.3959 176.685C26.6738 186.966 44.8043 193.241 53.8348 195.094V212.616H20.5743C16.8367 212.616 8.967 213.318 5.18194 208.803C1.39687 204.288 7.60707 187.672 11.2377 178.422C15.0228 168.778 18.5692 157.839 20.5743 151.021C19.3169 149.944 18.194 148.689 17.3842 147.623C14.1942 144.225 15.2742 127.624 7.45265 110.042C1.19543 95.9756 3.33167 81.8095 5.18194 76.4847C-1.47897 61.3463 6.44374 51.5063 11.2377 48.4786C8.61372 31.3217 22.1698 30.3966 29.2758 32.0786C29.2758 20.7753 39.0523 19.6315 43.9406 20.4725C44.8721 9.9642 56.1678 11.3843 61.6991 13.4079C67.0631 2.25359 83.5044 3.41143 88.4437 10.1278C96.7038 -0.293663 106.43 3.41156 110.899 7.35227C119.398 1.79045 128.197 7.35227 132.093 13.4079C139.906 7.35227 149.937 16.4355 152.677 22.4907C165.31 21.0778 171.103 29.3135 172.421 33.6079C184.056 36.8573 186.703 49.1997 186.572 54.9647C196.792 61.778 187.358 85.6245 187.358 87.4588C187.358 89.2931 185.393 102.92 186.572 105.802C187.751 108.685 184.301 119.957 184.301 124.932V141.125C184.301 145.329 182.022 148.637 178.089 149.366C179.198 158.26 182.381 174.546 184.301 181.106C187.358 191.554 195.411 199.68 190.768 213.185H144.835V195.094C151.572 192.546 165.659 185.646 168.106 178.422C170.553 171.197 171.165 156.304 171.165 149.76C164.962 148.544 167.029 130.786 166.178 127.624C165.327 124.462 162.043 111.69 164.11 100.501C166.178 89.3106 156.659 81.7399 152.677 80.2922C148.695 78.8445 141.348 79.6449 137.923 77.9992C132.093 75.1977 126.415 71.9166 120.824 73.3518C114.535 74.9661 107.118 73.9455 96.7038 72.1873C87.3384 70.6061 72.0154 74.5015 65.2257 77.9992C58.436 81.4969 51.3431 77.9992 43.9406 80.2922C39.1835 81.7657 30.3203 93.0311 33.4571 100.501Z" fill="#744C10"/>
<path d="M171.165 149.76C164.962 148.544 167.029 130.786 166.178 127.624C165.327 124.462 162.043 111.69 164.11 100.501C166.178 89.3106 156.659 81.7399 152.677 80.2922C148.695 78.8445 141.348 79.6449 137.923 77.9992C132.093 75.1977 126.415 71.9166 120.824 73.3518C114.535 74.9661 107.118 73.9455 96.7038 72.1873C87.3384 70.6061 72.0154 74.5015 65.2257 77.9992C58.436 81.4969 51.3431 77.9992 43.9406 80.2922C39.1835 81.7657 30.3203 93.0311 33.4571 100.501C39.4829 114.849 33.0985 143.801 29.2758 151.021C28.4847 152.515 27.4869 153.246 26.3959 153.447M171.165 149.76C172.603 150.042 176.668 149.629 178.089 149.366M171.165 149.76C171.165 156.304 170.553 171.197 168.106 178.422C165.659 185.646 151.572 192.546 144.835 195.094V213.185H190.768C195.411 199.68 187.358 191.554 184.301 181.106C182.381 174.546 179.198 158.26 178.089 149.366M184.301 124.932C184.301 129.906 184.301 135.651 184.301 141.125C184.301 145.329 182.022 148.638 178.089 149.366M184.301 124.932C184.301 119.957 187.751 108.685 186.572 105.802M184.301 124.932C182.394 125.676 177.964 126.719 175.501 124.932M186.572 105.802C185.393 102.92 187.358 89.2931 187.358 87.4588M186.572 105.802C183.185 105.886 176.229 105.496 175.501 103.267M187.358 87.4588C187.358 85.6245 196.792 61.778 186.572 54.9647M187.358 87.4588C183.947 88.587 176.183 90.1665 172.421 87.4588M186.572 54.9647C186.703 49.1997 184.056 36.8573 172.421 33.6079M186.572 54.9647C180.405 55.6151 166.53 59.9701 160.373 72.1873M172.421 33.6079C171.103 29.3135 165.31 21.0778 152.677 22.4907M172.421 33.6079C170.301 40.2412 162.174 56.3512 146.63 67.7247M152.677 22.4907C149.937 16.4355 139.906 7.35227 132.093 13.4079M152.677 22.4907C148.631 33.1661 138.85 55.3575 132.093 58.7207M132.093 13.4079C128.197 7.35227 119.398 1.79045 110.899 7.35227M132.093 13.4079C132.437 18.4023 132.271 29.7182 128.859 35.0258M110.899 7.35227C106.43 3.41156 96.7038 -0.293663 88.4437 10.1278M110.899 7.35227C116.412 11.7588 125.258 28.723 116.538 61.3271M88.4437 10.1278C83.5044 3.41143 67.0631 2.25359 61.6991 13.4079M88.4437 10.1278C92.168 17.5358 99.0341 37.8627 96.7038 59.9054M61.6991 13.4079C56.1678 11.3843 44.8721 9.9642 43.9406 20.4725M61.6991 13.4079C65.6487 25.6687 75.0373 52.1335 80.9957 59.9054M43.9406 20.4725C39.0523 19.6315 29.2758 20.7753 29.2758 32.0786M43.9406 20.4725C43.466 29.2334 46.6851 49.9891 63.358 62.9246M29.2758 32.0786C22.1698 30.3966 8.61372 31.3217 11.2377 48.4786M29.2758 32.0786C28.5077 39.4301 29.9096 56.5196 41.6622 66.0661M11.2377 48.4786C6.44374 51.5063 -1.47897 61.3463 5.18194 76.4847M11.2377 48.4786C12.4094 50.6289 15.917 55.3086 20.5743 56.8251M5.18194 76.4847C3.33167 81.8095 1.19543 95.9756 7.45265 110.042M5.18194 76.4847C9.99664 77.7283 20.4317 80.9399 23.6542 83.8372M7.45265 110.042C15.2742 127.624 14.1942 144.225 17.3842 147.623C18.194 148.689 19.3169 149.944 20.5743 151.021M7.45265 110.042C13.1691 109.474 24.4124 107.83 23.6542 105.802M20.5743 151.021C18.5692 157.839 15.0228 168.778 11.2377 178.422C7.60707 187.672 1.39687 204.288 5.18194 208.803C8.967 213.318 16.8367 212.616 20.5743 212.616C23.5644 212.616 43.9939 212.616 53.8348 212.616V195.094C44.8043 193.241 26.6738 186.966 26.3959 176.685C26.1181 166.404 26.2801 156.909 26.3959 153.447M20.5743 151.021C22.413 152.596 24.5395 153.788 26.3959 153.447" stroke="#3B2607" stroke-width="5" stroke-linecap="round" stroke-linejoin="round"/>
</g>
</svg>
