<svg width="181" height="153" viewBox="0 0 181 153" fill="none" xmlns="http://www.w3.org/2000/svg">
<g id="Hair">
<path d="M17.8738 148.773C12.0717 152.762 8.61178 144.6 7.55404 140.52C6.91401 138.888 2.74738 115.512 3.39412 106.429C7.16085 92.456 12.0557 90.1157 13.9594 85.7638C15.1328 83.0813 15.2618 75.63 21.9869 68.7592C18.3494 61.7973 12.4344 46.967 17.8738 43.3408C21.7298 40.7702 23.5357 41.0849 24.2603 42.0242C22.6057 36.5312 21.3611 29.2685 27.3925 25.5826C33.92 21.5936 40.9915 23.9205 43.7113 25.5826C44.0135 19.3875 46.4311 7.17866 53.6839 7.90394C60.9367 8.62922 69.7006 12.1346 73.1759 13.7966C74.2338 10.1702 78.9788 3.00805 89.4951 3.37069C100.011 3.73333 111.102 10.4724 115.333 13.7966C117.75 11.6812 123.583 8.08508 127.572 10.6235C132.558 13.7966 134.825 25.5826 138.905 25.5826C142.984 25.5826 152.05 31.0221 152.05 35.5551V51.9536C154.014 53.9179 157.943 58.5718 157.943 61.4729C157.943 64.374 156.082 68.8191 155.152 70.679C160.522 77.2311 163.181 78.8487 164.289 80.5912C166.426 83.9482 170.086 90.3868 171.542 97.0025C171.555 97.0531 171.567 97.1045 171.578 97.1569C172.379 100.43 176.392 107.153 176.906 110.114C179.172 123.18 177.522 129.188 174.349 140.52C171.811 149.586 162.825 149.152 160.105 146.735C160.105 135.402 145.631 120.528 137.178 120.528C129.46 120.528 113.756 116.685 103.919 112.685C100.305 111.216 94.5284 117.167 89.4951 118.295C85.4714 119.197 79.28 116.445 74.7392 115.533C70.4373 114.668 65.2499 120.041 58.6705 118.295C36.4588 112.402 27.7977 121.893 24.673 127.13C21.9869 131.632 25.1263 143.787 17.8738 148.773Z" fill="#C2934C"/>
<path d="M24.673 127.13C21.9869 131.632 25.1263 143.787 17.8738 148.773C12.0717 152.762 8.61178 144.6 7.55404 140.52C6.91401 138.888 2.74738 115.512 3.39412 106.429C7.16085 92.456 12.0557 90.1157 13.9594 85.7638M24.673 127.13C27.7977 121.893 36.4588 112.402 58.6705 118.295C65.2499 120.041 70.4373 114.668 74.7392 115.533M24.673 127.13C22.53 127.454 17.1223 123.841 15.4085 118.295M103.919 112.685C113.756 116.685 129.46 120.528 137.178 120.528M103.919 112.685C108.49 109.224 107.075 102.408 100.812 88.0927M103.919 112.685C100.305 111.216 94.5284 117.167 89.4951 118.295C85.4714 119.197 79.28 116.445 74.7392 115.533M137.178 120.528C145.631 120.528 160.105 135.402 160.105 146.735C162.825 149.152 171.811 149.586 174.349 140.52C177.522 129.188 179.172 123.18 176.906 110.114C176.384 107.106 172.249 100.214 171.542 97.0025M137.178 120.528C138.361 119.156 144.108 112.685 140.685 103.46M13.9594 85.7638C15.1328 83.0813 15.2618 75.63 21.9869 68.7592M13.9594 85.7638C13.2042 94.2113 14.3719 106.77 21.9869 110.114M21.9869 68.7592C18.3494 61.7973 12.4344 46.967 17.8738 43.3408C23.3132 39.7146 24.673 41.8299 24.673 43.3408M21.9869 68.7592C25.1793 65.4976 29.1008 64.68 33.8642 61.4729M24.673 43.3408C22.8597 37.7502 20.865 29.5717 27.3925 25.5826C33.92 21.5936 40.9915 23.9205 43.7113 25.5826M24.673 43.3408C23.5478 47.6666 23.8068 59.411 33.8642 61.4729M43.7113 25.5826C44.0135 19.3875 46.4311 7.17866 53.6839 7.90394C60.9367 8.62922 69.7006 12.1346 73.1759 13.7966M43.7113 25.5826C40.7877 30.0073 43.2494 42.9071 55.9041 51.9536M73.1759 13.7966C74.2338 10.1702 78.9788 3.00805 89.4951 3.37069C100.011 3.73333 111.102 10.4724 115.333 13.7966M73.1759 13.7966C71.1553 18.6693 63.9774 31.2936 74.7392 45.076C73.255 48.133 71.1771 55.4362 74.7392 60.1934M115.333 13.7966C117.75 11.6812 123.583 8.08508 127.572 10.6235C132.558 13.7966 134.825 25.5826 138.905 25.5826M115.333 13.7966C118.352 19.5516 119.298 37.777 105.341 48.5412M138.905 25.5826C142.984 25.5826 152.05 31.0221 152.05 35.5551C152.05 39.1815 152.05 46.6651 152.05 51.9536C154.014 53.9179 157.943 58.5718 157.943 61.4729C157.943 64.374 156.082 68.8191 155.152 70.679M138.905 25.5826C139.149 33.1804 137.206 48.7337 127.485 50.1648M155.152 70.679C160.522 77.2311 163.181 78.8487 164.289 80.5912C166.426 83.9481 170.086 90.3868 171.542 97.0025M155.152 70.679C150.037 64.438 143.953 62.6665 132.917 57.2708M155.152 70.679C155.838 74.9309 157.759 86.2296 152.05 88.0927M46.4406 58.934C42.2087 64.9672 34.9819 73.1077 46.4406 88.0927M46.4406 58.934C47.8322 58.3139 54.4165 52.5248 55.9041 51.9536M46.4406 58.934C41.7199 61.0376 37.5404 58.9977 33.8642 61.4729M132.917 57.2708C136.639 65.8921 145.642 73.8367 127.485 92.3849M132.917 57.2708C131.649 56.6509 128.846 50.7361 127.485 50.1648M171.542 97.0025C172.496 100.803 169.399 109.581 157.943 114.295M74.7392 115.533C72.149 111.143 58.6706 91.6215 85.2347 74.9631M55.9041 51.9536C66.3016 47.9614 73.9304 43.4673 89.4951 43.3408C95.8093 43.2895 100.01 47.7392 105.341 48.5412M105.341 48.5412C113.163 49.7181 121.571 47.6819 127.485 50.1648" stroke="#383434" stroke-width="5" stroke-linecap="round" stroke-linejoin="round"/>
</g>
</svg>
