<svg width="227" height="168" viewBox="0 0 227 168" fill="none" xmlns="http://www.w3.org/2000/svg">
<g id="hair">
<path d="M14.4358 136.469C11.4569 152.55 20.5363 164 39.4613 164C40.7035 153.325 38.0006 148 43.8317 142.813C54.2087 133.582 41.5447 130.638 46.9177 120.613C56.1243 113.527 54.4418 105.577 54.2087 99.5299C70.9525 99.5299 71.969 85.7224 71.2696 83.351C77.984 87.0503 95.4186 88.7246 101.206 80.1589C104.522 88.5233 121.313 88.1207 125.966 82.082C134.639 85.7814 142.027 85.73 148.557 80.1589C150.46 87.9195 165.791 97.4876 174.095 92.8665C171.421 105.19 175.182 113.672 182.999 119.03C189.805 127.845 178.554 134.343 186.719 142.813C190.769 147.014 192.299 152.331 192.299 161.514C216.36 157.535 215.615 135.761 212.934 128.766C219.092 119.03 226.598 112.221 222.162 95.5254C219.64 86.0331 214.622 77.2031 201.082 74.1764C206.583 66.8499 208.408 55.5991 201.082 44.9565C193.277 33.6175 176.067 36.8816 173.037 40.32C175.601 36.2887 177.189 20.5007 160.79 14.5179C142.421 7.8161 136.297 19.0872 132.121 24.3133C107.519 -12.8984 66.9137 8.72989 59.7322 28.2261C36.6339 24.3133 24.2647 40.32 26.1604 59.1921C1.86534 68.1316 4.69595 91.3173 11.4569 101.87C-1.35121 113.132 2.52087 132.989 14.4358 136.469Z" fill="#583F3F"/>
<path d="M14.4358 136.469C11.4569 152.55 20.5363 164 39.4613 164C40.7035 153.325 38.0006 148 43.8317 142.813C54.2087 133.582 41.5447 130.638 46.9177 120.613C56.1243 113.527 54.4418 105.577 54.2087 99.5299C70.9525 99.5299 71.969 85.7224 71.2696 83.351M14.4358 136.469C2.52087 132.989 -1.35121 113.132 11.4569 101.87M14.4358 136.469C17.6663 135.206 22.0776 134.237 26.1604 136.469M11.4569 101.87C4.69595 91.3173 1.86534 68.1316 26.1604 59.1921M11.4569 101.87C13.3035 99.7927 21.2861 101.87 26.1604 106.612M26.1604 59.1921C24.2647 40.32 36.6339 24.3133 59.7322 28.2261M26.1604 59.1921C30.2401 57.691 39.099 62.02 41.8972 70.0817M59.7322 28.2261C66.9137 8.72989 107.519 -12.8984 132.121 24.3133M59.7322 28.2261C59.324 32.8502 61.8695 42.0986 71.2696 42.0986M132.121 24.3133C136.297 19.0872 142.421 7.8161 160.79 14.5179C177.189 20.5007 175.601 36.2887 173.037 40.32M132.121 24.3133C132.121 26.4007 134.367 36.6361 124.761 40.32M173.037 40.32C176.067 36.8816 193.277 33.6175 201.082 44.9565C208.408 55.5991 206.583 66.8499 201.082 74.1764M173.037 40.32C170.665 43.0106 167.61 44.5005 165.48 52.7752M201.082 74.1764C214.622 77.2031 219.64 86.0331 222.162 95.5254C226.598 112.221 219.092 119.03 212.934 128.766M201.082 74.1764C201.082 74.1764 192.299 77.8501 192.299 83.351M212.934 128.766C215.615 135.761 216.36 157.535 192.299 161.514C192.299 152.331 190.769 147.014 186.719 142.813C178.554 134.343 189.805 127.845 182.999 119.03C175.182 113.672 171.421 105.19 174.095 92.8665C165.791 97.4876 150.46 87.9195 148.557 80.1589M212.934 128.766C212.09 126.564 207.749 124.414 202.435 128.766M148.557 80.1589C142.027 85.73 134.639 85.7814 125.966 82.082C121.313 88.1207 104.522 88.5233 101.206 80.1589C95.4186 88.7246 77.984 87.0503 71.2696 83.351M148.557 80.1589C149.003 79.7788 149.635 78.841 149.979 77.8501M71.2696 83.351C70.0867 82.7474 67.5594 80.802 66.9137 77.8501" stroke="#383434" stroke-width="7" stroke-linecap="round" stroke-linejoin="round"/>
</g>
</svg>
