<svg width="210" height="210" viewBox="0 0 210 210" fill="none" xmlns="http://www.w3.org/2000/svg">
<g id="tail">
<path d="M150.15 99.0498C137.471 84.0214 106.003 78.7455 92.5435 80.7847C80.8992 82.5489 72.0018 86.5671 66.7473 93.4747C60.6627 101.474 64.8923 129.857 49.604 147.843C42.9426 155.68 36.2679 167.753 36.2679 181.491C36.2679 195.229 38.3586 203.337 31.9708 205.151C21.7569 208.053 16.7866 197.246 16.7866 190.947C16.7866 176.716 18.5825 172.605 16.7866 167.543C16.0721 161.542 15.5348 150.545 15.1732 145.439C11.8582 142.384 6.18403 134.989 10.0065 129.857C5.90493 127.487 -0.389761 118.008 7.24417 99.0498C4.60117 94.7724 0.900968 85.1309 7.24417 80.7847C4.78862 76.4259 3.49467 64.5857 19.3333 56.4755C17.3647 50.7969 17.998 39.8902 34.9097 37.3118C37.8845 29.6381 48.4168 14.6589 66.7473 16.1323C70.0778 12.4489 78.8504 6.7057 86.4374 5.08212C99.7768 2.2275 120.969 4.62157 124.653 12.4488C133.575 10.4217 143.491 12.4488 150.15 23.3016C157.385 23.3016 162.716 26.7967 165.139 32.6153C172.345 33.7936 177.364 38.8841 178.606 47.9208C184.867 50.0154 194.97 60.7022 190.824 78.1689C191.533 79.2396 195.238 84.6782 195.481 85.0182C198.715 89.5451 205.709 102.267 206.295 133.91C206.597 150.228 205.497 160.78 203.878 168.861C206.168 174.646 208.281 181.139 200.69 181.139C197.496 194.599 188.849 202.42 184.113 198.369C178.289 193.387 182.188 171.298 184.113 158.935C173.812 137.4 160.775 111.644 150.15 99.0498Z" fill="#B73418"/>
<path d="M184.113 158.935C173.812 137.4 160.775 111.644 150.15 99.0498C137.471 84.0214 106.003 78.7454 92.5435 80.7847C80.8992 82.5489 72.0018 86.5671 66.7473 93.4747C60.6627 101.474 64.8923 129.857 49.604 147.843C42.9426 155.68 36.2679 167.753 36.2679 181.491C36.2679 195.229 38.3586 203.337 31.9708 205.151C21.7569 208.053 16.7866 197.246 16.7866 190.947C16.7866 176.716 18.5825 172.605 16.7866 167.543M184.113 158.935C187.929 166.912 191.059 177.466 200.69 181.139M184.113 158.935C182.188 171.298 178.289 193.387 184.113 198.369C188.849 202.42 197.496 194.599 200.69 181.139M200.69 181.139C208.281 181.139 206.168 174.646 203.878 168.861M74.0944 47.4327C80.035 43.1095 81.3823 37.3118 96.1358 30.2893C126.59 19.4723 151.598 34.1454 168.317 50.0154M74.0944 47.4327C61.0082 48.9906 35.5954 58.4494 26.5829 80.7847C16.9606 104.631 13.0555 115.541 15.1732 145.439M74.0944 47.4327C84.073 44.0068 113.835 36.1186 130.747 41.7889C147.659 47.4593 164.037 62.409 170.032 85.4068C178.606 118.294 184.113 138.457 203.878 168.861M74.0944 47.4327C68.8228 49.7807 53.3801 52.8213 42.6755 77.9487C31.9708 103.076 47.5918 129.857 16.7866 167.543M16.7866 167.543C16.0721 161.542 15.5348 150.545 15.1732 145.439M15.1732 145.439C11.8582 142.384 6.18403 134.989 10.0065 129.857C5.90493 127.487 -0.389761 118.008 7.24417 99.0498C4.60117 94.7724 0.900968 85.1309 7.24417 80.7847M7.24417 80.7847C4.78862 76.4259 3.49467 64.5857 19.3333 56.4755M7.24417 80.7847C7.96063 80.0578 11.0104 78.909 14.3483 79.7813M19.3333 56.4755C17.3647 50.7969 17.998 39.8902 34.9097 37.3118M19.3333 56.4755C20.8079 55.7204 24.4461 55.9462 26.8755 57.4433M34.9097 37.3118C37.8845 29.6381 48.4168 14.6589 66.7473 16.1323M34.9097 37.3118C37.1753 38.5964 39.8866 40.1348 42.6755 43.9378M66.7473 16.1323C70.0778 12.4489 78.8504 6.7057 86.4374 5.08212C99.7768 2.2275 120.969 4.62157 124.653 12.4488M66.7473 16.1323C68.4 17.4144 71.8322 21.5759 72.3393 27.965M124.653 12.4488C133.575 10.4217 143.491 12.4488 150.15 23.3016M124.653 12.4488C123.277 13.5838 123.385 15.1254 121.748 18.2737M150.15 23.3016C157.385 23.3016 162.716 26.7967 165.139 32.6153M150.15 23.3016L148.578 26.4656M165.139 32.6153C172.345 33.7936 177.364 38.8841 178.606 47.9208C184.867 50.0154 194.97 60.7022 190.824 78.1689M165.139 32.6153L163.994 35.018M190.824 78.1689C191.533 79.2396 195.238 84.6782 195.481 85.0182C198.715 89.5451 205.709 102.267 206.295 133.91C206.597 150.228 205.497 160.78 203.878 168.861M190.824 78.1689C187.733 73.5053 179.174 60.3197 168.317 50.0154M168.317 50.0154C177.141 65.4224 199.374 113.542 192.456 149.539" stroke="#8C1A1A" stroke-width="7" stroke-linecap="round" stroke-linejoin="round"/>
</g>
</svg>
